<?xml version="1.0" encoding="UTF-8" standalone="no"?>
<!-- Created with Inkscape (http://www.inkscape.org/) -->
<svg xmlns="http://www.w3.org/2000/svg" height="100%" width="100%" version="1.1" viewBox="0 0 64 64">
<defs>
<linearGradient id="b" y2="35.469" gradientUnits="userSpaceOnUse" x2="-1.625" gradientTransform="matrix(.69815 0 0 1.7159 1045.1 -86.799)" y1="35.469" x1="-23.438">
<stop stop-color="#606060" offset="0"/>
<stop stop-color="#888" offset=".33929"/>
<stop stop-color="#3d3d3d" offset="1"/>
</linearGradient>
<linearGradient id="a" y2="35.469" gradientUnits="userSpaceOnUse" x2="-1.625" gradientTransform="matrix(.69815 0 0 4.6508 1016.3 -209.52)" y1="35.469" x1="-23.438">
<stop stop-color="#606060" offset="0"/>
<stop stop-color="#888" offset=".33929"/>
<stop stop-color="#3d3d3d" offset="1"/>
</linearGradient>
</defs>
<g transform="translate(0,-988.36)">
<g transform="matrix(1.1976 0 0 1.1976 -3.3102 -204.48)">
<g transform="matrix(0,-1,1,0,-981.41,1007.9)" stroke="#8bb086" stroke-width=".5" fill="#8bc58b">
<path d="m-11.971-3.936c0.09384 0.044156 0.18732 0.087368 0.28039 0.13552 0.1678 0.080302 0.3324 0.16669 0.49564 0.25586 0.21606 0.11679 0.42084 0.25204 0.62522 0.38775 0.2275 0.15355 0.44903 0.31541 0.6698 0.4784 0.21838 0.16 0.43224 0.3259 0.64398 0.49454 0.21146 0.1683 0.42048 0.33967 0.62678 0.51426 0.20689 0.17699 0.41173 0.35624 0.60999 0.54289 0.20524 0.19317 0.40636 0.39078 0.59352 0.6016 0.20346 0.24024 0.39782 0.48785 0.59008 0.73706 0.18524 0.24024 0.36829 0.48213 0.54895 0.72583 0.16936 0.22 0.32679 0.44788 0.47694 0.68124 0.15123 0.24369 0.29012 0.49533 0.41503 0.75349 0.12737 0.25972 0.24481 0.52411 0.36136 0.78881 0.10741 0.24511 0.21096 0.49189 0.31461 0.7386l-5.1055 0.20081c-0.0997-0.2435-0.2008-0.4866-0.3068-0.7276-0.113-0.2559-0.228-0.5109-0.358-0.759-0.129-0.2377-0.262-0.4739-0.416-0.6966-0.152-0.222-0.312-0.4376-0.47-0.6548-0.1774-0.23964-0.35585-0.47856-0.54044-0.71275-0.18878-0.23747-0.38034-0.47376-0.59488-0.68874-0.19448-0.19186-0.39029-0.38241-0.59492-0.56354-0.2005-0.17621-0.4028-0.35045-0.60902-0.51994-0.20663-0.16861-0.41429-0.33598-0.62547-0.49889-0.21136-0.16194-0.42499-0.32093-0.64124-0.47628-0.21829-0.15523-0.43979-0.30633-0.66923-0.44473-0.20635-0.12259-0.41775-0.2367-0.63514-0.33862-0.16922-0.078767-0.34004-0.15441-0.51418-0.22175-0.09993-0.034607-0.20018-0.068462-0.30218-0.093581l5.131-0.63978z" transform="translate(0,988.36)"/>
<path d="m-9.9001 7.6676c0.00425-0.073663 0.00644-0.14743 0.00947-0.22116 0.0038-0.13621 0.00625-0.27246 0.00959-0.40868 0.0002137-0.19532 0.00792-0.39042 0.017632-0.58545 0.011322-0.23061 0.031185-0.46064 0.051637-0.69058 0.024614-0.26844 0.065705-0.53513 0.10586-0.80161 0.044343-0.28899 0.10191-0.57561 0.16286-0.86148 0.060757-0.28335 0.13211-0.56429 0.2058-0.84452 0.069468-0.25572 0.1411-0.51086 0.21578-0.76511 0.069235-0.23727 0.14543-0.47233 0.22895-0.70494 0.087578-0.23841 0.18759-0.47192 0.29278-0.70301 0.1016-0.22025 0.20832-0.43805 0.31741-0.65467 0.098802-0.19802 0.20454-0.39244 0.31138-0.58621 0.10522-0.18916 0.21778-0.37404 0.3339-0.55666 0.11432-0.17467 0.23076-0.34795 0.34882-0.52012 0.10795-0.15965 0.22138-0.31546 0.33584-0.47047 0.11056-0.15167 0.23061-0.2959 0.35351-0.43763 0.13261-0.15107 0.27426-0.29375 0.41602-0.43613 0.14089-0.13708 0.27978-0.27618 0.4223-0.41157 0.090816-0.085811 0.045514-0.04343 0.13589-0.12716l5.1134 0.42834c-0.091237 0.08047-0.04545 0.040168-0.13736 0.1209-0.14411 0.13002-0.28815 0.2601-0.42475 0.39812-0.13941 0.13181-0.27597 0.26669-0.40926 0.4047-0.12109 0.12764-0.23897 0.25865-0.34898 0.39598-0.11678 0.14642-0.23046 0.29534-0.34061 0.44681-0.11883 0.16762-0.23658 0.33593-0.35125 0.50643-0.11656 0.17055-0.22787 0.34458-0.33173 0.5232-0.10914 0.18602-0.21403 0.37453-0.31658 0.56425-0.11025 0.21024-0.21949 0.421-0.32193 0.6352-0.1041 0.21692-0.203 0.43624-0.2889 0.66111-0.084938 0.22172-0.1601 0.44674-0.23071 0.67342-0.077467 0.24937-0.1524 0.4995-0.22375 0.7507-0.076156 0.27066-0.14792 0.5427-0.20855 0.81729-0.059936 0.27484-0.1164 0.55043-0.15969 0.82847-0.0375 0.256-0.071825 0.51248-0.091738 0.77055-0.018736 0.22232-0.035183 0.4448-0.044247 0.66776-0.00625 0.18798-0.00661 0.37603-0.00259 0.56407 0.00334 0.13623 0.00578 0.27247 0.00959 0.40868 0.00303 0.073724 0.00522 0.1475 0.00947 0.22116h-5.1752z" transform="translate(0,988.36)"/>
</g>
<g stroke-linejoin="round" transform="matrix(0,-1,1,0,-1016.5,1049.5)" stroke="#c0c0c0">
<rect transform="rotate(90)" height="19.197" width="14.53" y="-35.536" x="1029.1" fill="url(#b)"/>
<path d="m-2717.1-383.35a144.29 370 0 1 1 -288.57 0 144.29 370 0 1 1 288.57 0z" transform="matrix(.027036 0 0 .019298 93.122 1043.6)" stroke-width="43.779" fill="#606060"/>
</g>
<rect stroke-linejoin="round" transform="rotate(90)" height="52.031" width="14.53" stroke="#c0c0c0" y="-70.578" x="1000.3" fill="url(#a)"/>
<g stroke-width=".5">
<g stroke="#8bb086" fill="#8bc58b">
<path d="m34.086 10.646c0.03585 0.01215 0.06946 0.02997 0.10741 0.04075 0.02697 0.02221 0.06315 0.04281 0.09623 0.05453 0.04488 0.02576 0.08284 0.06135 0.12459 0.09369 0.05712 0.04356 0.11275 0.08945 0.16945 0.13422 0.06931 0.06296 0.13814 0.12631 0.2069 0.18986 0.08206 0.07912 0.16088 0.16144 0.23801 0.24536 0.08597 0.09704 0.1703 0.19551 0.25651 0.29235 0.09089 0.10698 0.18299 0.21295 0.27256 0.32104 0.09486 0.1133 0.19177 0.22484 0.28666 0.33808 0.09831 0.11599 0.19651 0.23213 0.29217 0.35033 0.09886 0.11862 0.19232 0.24153 0.28681 0.36361 0.09813 0.12777 0.19276 0.25826 0.28365 0.39128 0.09686 0.14 0.19011 0.28243 0.27914 0.42754 0.1006 0.16458 0.19157 0.33496 0.28257 0.50501 0.09966 0.18494 0.18881 0.37512 0.27571 0.5663 0.09064 0.20067 0.17109 0.40572 0.24882 0.61167 0.07516 0.19612 0.14686 0.39353 0.21877 0.59085 0.06418 0.17769 0.12691 0.35589 0.18978 0.53405 0.05837 0.16398 0.11277 0.3292 0.16231 0.49605 0.05267 0.17803 0.09535 0.35879 0.13676 0.5397 0.04144 0.18645 0.0808 0.37336 0.12064 0.56016 0.0358 0.17129 0.07159 0.34258 0.10618 0.51412 0.03403 0.16088 0.06227 0.32283 0.08712 0.48535 0.02254 0.15296 0.04084 0.30654 0.05706 0.46029 0.01373 0.13946 0.02241 0.27933 0.02574 0.41941 0.0027 0.12073-0.0012 0.24148-0.0043 0.36216-0.0026 0.11042-0.0054 0.22083-0.0083 0.33124-0.0029 0.11106-0.0056 0.22211-0.0087 0.33316-0.0038 0.12435-0.0065 0.24872-0.0092 0.37309-0.003 0.1356-0.0051 0.27123-0.0069 0.40685-0.0011 0.13876-0.0035 0.27748-0.0085 0.41616-0.0048 0.13853-0.01687 0.27665-0.03235 0.41435-0.01671 0.13697-0.03994 0.27299-0.06523 0.4086-0.02575 0.12784-0.0499 0.25601-0.07651 0.38367-0.02468 0.12464-0.05115 0.24889-0.07747 0.37319-0.02514 0.12296-0.05428 0.24502-0.08344 0.36707-0.02815 0.1144-0.05944 0.228-0.09084 0.34154-0.03069 0.10548-0.06043 0.21124-0.09168 0.31655-0.03093 0.10106-0.06467 0.20121-0.0979 0.30153-0.03552 0.10113-0.06815 0.20319-0.10018 0.30546-0.0339 0.10532-0.06711 0.2109-0.10204 0.31588-0.03275 0.10166-0.06782 0.2025-0.10463 0.30275-0.03267 0.09581-0.0728 0.18872-0.11095 0.2824-0.03646 0.08407-0.07391 0.16772-0.11234 0.25091-0.03681 0.07627-0.07426 0.15221-0.11172 0.22815-0.03657 0.07564-0.07821 0.14865-0.11696 0.22315-0.04021 0.07021-0.07913 0.14105-0.12261 0.20932-0.0415 0.06454-0.08382 0.12854-0.12597 0.19272-0.03902 0.06706-0.09126 0.12384-0.14098 0.18261-0.008 0.0088-0.01599 0.01769-0.02399 0.02654l-5.151-0.39752c0.008-0.0076 0.01594-0.01523 0.02391-0.02285 0.04629-0.04192 0.08904-0.08758 0.13728-0.12759 0.04591-0.04908 0.08885-0.10251 0.12496-0.1591 0.04167-0.05878 0.08708-0.11514 0.12227-0.17821 0.04259-0.06302 0.07775-0.13076 0.11631-0.19628 0.0392-0.07156 0.07541-0.14453 0.11318-0.21687 0.04008-0.07604 0.07679-0.15353 0.11341-0.23128 0.04048-0.08222 0.07535-0.16714 0.11218-0.25103 0.03621-0.0946 0.07428-0.1885 0.10595-0.28477 0.03458-0.10206 0.06879-0.20423 0.10252-0.30659 0.03345-0.10502 0.06416-0.21088 0.09918-0.3154 0.03336-0.09713 0.06452-0.195 0.09769-0.29221 0.03417-0.10026 0.062-0.20238 0.09309-0.30362 0.03275-0.1076 0.06308-0.21597 0.09261-0.32448 0.03113-0.1146 0.05855-0.23024 0.08478-0.34606 0.02606-0.12346 0.05377-0.24655 0.07869-0.37024 0.0256-0.12636 0.05194-0.25257 0.07701-0.37904 0.02541-0.12286 0.04792-0.24631 0.06438-0.37072 0.01615-0.12413 0.02807-0.24884 0.03331-0.37394 0.0064-0.1338 0.0079-0.26771 0.0093-0.40164 0.0018-0.13612 0.0035-0.27223 0.0048-0.40836 0.0014-0.12525 0.0029-0.25049 0.0044-0.37574 0.0016-0.11186 0.0041-0.22371 0.007-0.33555 0.0028-0.11068 0.0061-0.22135 0.0097-0.33202 0.0033-0.11292 0.0076-0.22586 0.0075-0.33884-0.0013-0.12549-0.0079-0.25087-0.0194-0.37585-0.0145-0.14512-0.03108-0.29009-0.05279-0.43432-0.02416-0.15516-0.0536-0.30938-0.08385-0.46346-0.0331-0.1698-0.06594-0.33966-0.1008-0.5091-0.03723-0.18245-0.0749-0.36486-0.11913-0.54576-0.04217-0.16999-0.08738-0.33924-0.14101-0.50603-0.05138-0.16011-0.10543-0.31934-0.15948-0.47857-0.05995-0.1764-0.12066-0.35256-0.183-0.52813-0.06882-0.19372-0.1388-0.38704-0.21306-0.57874-0.07735-0.19456-0.15802-0.38785-0.24964-0.5762-0.08717-0.18002-0.17805-0.35821-0.27724-0.53197-0.09161-0.16001-0.18552-0.31855-0.28945-0.47098-0.09124-0.13546-0.18368-0.27013-0.28058-0.40162-0.09327-0.1242-0.18698-0.24804-0.2846-0.36888-0.09357-0.11803-0.19-0.23376-0.28657-0.34934-0.09729-0.11451-0.19376-0.22971-0.29187-0.34354-0.09676-0.11179-0.19178-0.22509-0.28874-0.33672-0.09113-0.10307-0.18089-0.20738-0.27517-0.30761-0.08318-0.09121-0.16738-0.18176-0.25915-0.26448-0.07735-0.07013-0.15556-0.13949-0.23996-0.20116-0.0663-0.05018-0.13482-0.09928-0.20944-0.13631-0.05412-0.03068-0.1107-0.05873-0.16977-0.07708-0.042-0.01169-0.08028-0.01369-0.1216-0.0183-0.02508-0.0089-0.06683-0.01718-0.09109-0.007-0.03391-0.0075-0.06462-0.0081-0.09729-0.0064l5.1223-0.71712z" transform="translate(0,988.36)"/>
<path d="m30.264 10.658c0.05635 0.03222 0.12163 0.0524 0.18331 0.07476 0.08766 0.03215 0.17346 0.06829 0.25842 0.10698 0.10397 0.04692 0.20678 0.09542 0.30922 0.14572 0.11984 0.07408 0.24016 0.14752 0.35729 0.22584 0.13003 0.0805 0.25625 0.16752 0.37256 0.2669 0.13238 0.10605 0.2573 0.22087 0.38007 0.33778 0.12592 0.12301 0.2527 0.24508 0.37861 0.3681 0.12063 0.11612 0.24049 0.23302 0.35674 0.35355 0.11665 0.12236 0.21634 0.25884 0.31313 0.39702 0.10661 0.15666 0.19132 0.32689 0.27422 0.49691 0.10554 0.23501 0.16354 0.48752 0.22485 0.73681 0.07603 0.3142 0.1374 0.63156 0.19835 0.94894 0.06215 0.32416 0.12042 0.64905 0.17966 0.97375 0.05369 0.29405 0.10652 0.58824 0.15693 0.88287 0.04364 0.25935 0.08137 0.51964 0.11165 0.78089 0.02815 0.23364 0.04512 0.46835 0.05586 0.70337 0.0091 0.21068 0.01466 0.42149 0.02043 0.63228 0.0053 0.20732 0.0096 0.41466 0.01368 0.62201 0.0037 0.21518 0.0075 0.43036 0.01104 0.64554 0.0035 0.21948 0.0067 0.43898 0.01049 0.65846 0.0033 0.21302 0.0074 0.42602 0.01071 0.63904 0.0038 0.19959 0.0066 0.3992 0.01017 0.5988 0.003 0.18611 0.0059 0.37222 0.0088 0.55833 0.003 0.17153 0.0057 0.34306 0.008 0.5146 0.0024 0.16215 0.0041 0.32432 0.0063 0.48647 0.0022 0.15342 0.0014 0.30687 0.000591 0.4603 0.00036 0.14226-0.0016 0.28447-0.0065 0.42665-0.0055 0.13927-0.01254 0.27846-0.02263 0.41748-0.0094 0.1352-0.02485 0.26983-0.04089 0.40436-0.01403 0.12281-0.03072 0.24527-0.04869 0.36756-0.01769 0.1165-0.0378 0.23259-0.06127 0.34806-0.02328 0.11004-0.04931 0.21948-0.07623 0.32867-0.02577 0.1032-0.05427 0.20567-0.08317 0.30803-0.02849 0.09975-0.06167 0.19808-0.09363 0.29676-0.03391 0.09406-0.06671 0.18849-0.10372 0.28139-0.03676 0.08756-0.07335 0.17522-0.11556 0.26031-0.04075 0.08467-0.08019 0.17027-0.12748 0.25153-0.03072 0.05092-0.05965 0.10286-0.08886 0.15464l-5.1533-0.29874c0.03296-0.04223 0.06254-0.08643 0.08895-0.1331 0.04254-0.06966 0.09044-0.13599 0.12605-0.20986 0.03816-0.07843 0.08206-0.15395 0.11585-0.23454 0.03847-0.08191 0.07417-0.16456 0.10353-0.25026 0.03567-0.08748 0.06134-0.17834 0.09414-0.2669 0.03014-0.09625 0.05765-0.1933 0.08422-0.29058 0.02814-0.10195 0.05341-0.20465 0.07723-0.30769 0.02471-0.10557 0.045-0.21208 0.06221-0.31914 0.02017-0.11636 0.03668-0.23333 0.05181-0.35044 0.01664-0.12615 0.03341-0.25235 0.04296-0.37928 0.01065-0.13247 0.01779-0.26516 0.02322-0.39794 0.0059-0.13715 0.0072-0.27441 0.0091-0.41166 0.0019-0.15014 0.0051-0.3003 0.0034-0.45046-0.0011-0.16198-0.0027-0.32396-0.0039-0.48594-0.0015-0.1714-0.0027-0.3428-0.0038-0.5142-0.0015-0.18595-0.003-0.3719-0.0048-0.55784-0.0015-0.19944-0.004-0.39887-0.0056-0.59831-0.0026-0.21277-0.0044-0.42554-0.0076-0.63831-0.0029-0.21907-0.0065-0.43813-0.01074-0.65719-0.0041-0.21457-0.0082-0.42914-0.01356-0.64368-0.0047-0.20664-0.0097-0.41326-0.01488-0.61989-0.0049-0.20791-0.0099-0.41583-0.01598-0.62371-0.0086-0.22308-0.02327-0.44588-0.04831-0.66778-0.02742-0.25236-0.06007-0.50412-0.09951-0.7549-0.04623-0.29267-0.09548-0.58485-0.14548-0.8769-0.05523-0.32194-0.11175-0.64369-0.17493-0.96418-0.06167-0.30624-0.12732-0.61198-0.21243-0.91271-0.06435-0.21576-0.1339-0.43051-0.25102-0.62453-0.08124-0.14397-0.16766-0.2847-0.27621-0.41018-0.09674-0.11606-0.19972-0.2264-0.30968-0.33014-0.11688-0.11463-0.23396-0.22904-0.3517-0.34279-0.12365-0.11815-0.24708-0.23677-0.37787-0.34709-0.1223-0.10128-0.24739-0.19931-0.38002-0.28686-0.12348-0.07405-0.2459-0.14962-0.37165-0.21981-0.11588-0.06058-0.23166-0.12312-0.35772-0.16041-0.10161-0.03871-0.20441-0.07526-0.30993-0.10158-0.08492-0.01868-0.16996-0.03523-0.25712-0.03849-0.05769-0.0018-0.12791-0.004-0.17799 0.026 0 0 5.1106-0.80945 5.1106-0.80945z" transform="translate(0,988.36)"/>
<g transform="matrix(-.90069 .43446 .43446 .90069 -362.68 40.797)">
<path d="m78.411 1028.4c0.03585 0.012 0.06946 0.03 0.10741 0.041 0.02697 0.022 0.06315 0.043 0.09623 0.054 0.04488 0.026 0.08284 0.061 0.12459 0.094 0.05712 0.044 0.11275 0.089 0.16945 0.1342 0.06931 0.063 0.13814 0.1264 0.2069 0.1899 0.08206 0.079 0.16088 0.1614 0.23801 0.2454 0.08597 0.097 0.1703 0.1955 0.25651 0.2923 0.09089 0.107 0.18299 0.2129 0.27256 0.321 0.09486 0.1133 0.19177 0.2249 0.28666 0.3381 0.09831 0.116 0.19651 0.2322 0.29217 0.3504 0.09886 0.1186 0.19232 0.2415 0.28681 0.3636 0.09813 0.1277 0.19276 0.2582 0.28365 0.3912 0.09686 0.14 0.19011 0.2825 0.27914 0.4276 0.1006 0.1646 0.19157 0.335 0.28257 0.505 0.09966 0.1849 0.18881 0.3751 0.27571 0.5663 0.09064 0.2007 0.17109 0.4057 0.24882 0.6117 0.07516 0.1961 0.14686 0.3935 0.21877 0.5908 0.06418 0.1777 0.12691 0.3559 0.18978 0.5341 0.05837 0.1639 0.11277 0.3292 0.16231 0.496 0.05267 0.178 0.09535 0.3588 0.13676 0.5397 0.04144 0.1865 0.0808 0.3734 0.12064 0.5602 0.0358 0.1713 0.07159 0.3425 0.10618 0.5141 0.03403 0.1609 0.06227 0.3228 0.08712 0.4853 0.02254 0.153 0.04084 0.3066 0.05706 0.4603 0.01373 0.1395 0.02241 0.2794 0.02574 0.4194 0.0027 0.1208-0.0012 0.2415-0.0043 0.3622-0.0026 0.1104-0.0054 0.2208-0.0083 0.3312-0.0029 0.1111-0.0056 0.2222-0.0087 0.3332-0.0038 0.1244-0.0065 0.2487-0.0092 0.3731-0.003 0.1356-0.0051 0.2712-0.0069 0.4068-0.0011 0.1388-0.0035 0.2775-0.0085 0.4162-0.0048 0.1386-0.01687 0.2767-0.03235 0.4144-0.01671 0.137-0.03994 0.273-0.06523 0.4086-0.02575 0.1278-0.0499 0.256-0.07651 0.3837-0.02468 0.1246-0.05115 0.2489-0.07747 0.3732-0.02514 0.1229-0.05428 0.245-0.08344 0.367-0.02815 0.1144-0.05944 0.2279-0.09084 0.3416-0.03069 0.1054-0.06043 0.2112-0.09168 0.3165-0.03093 0.1011-0.06467 0.2011-0.0979 0.3015-0.03552 0.1012-0.06815 0.2032-0.10018 0.3055-0.0339 0.1053-0.06711 0.2109-0.10204 0.3159-0.03275 0.1017-0.06782 0.2025-0.10463 0.3027-0.03267 0.096-0.0728 0.1888-0.11095 0.2824-0.03646 0.084-0.07391 0.1678-0.11234 0.2509-0.03681 0.076-0.07426 0.1523-0.11172 0.2282-0.03657 0.076-0.07821 0.1486-0.11696 0.2232-0.04021 0.07-0.07913 0.141-0.12261 0.2093-0.0415 0.064-0.08382 0.1285-0.12597 0.1927-0.03902 0.067-0.09126 0.1238-0.14098 0.1826-0.008 0.01-0.01599 0.018-0.02399 0.026l-5.151-0.3975c0.008-0.01 0.01594-0.015 0.02391-0.023 0.04629-0.042 0.08904-0.088 0.13728-0.1276 0.04591-0.049 0.08885-0.1025 0.12496-0.1591 0.04167-0.059 0.08708-0.1152 0.12227-0.1782 0.04259-0.063 0.07775-0.1308 0.11631-0.1963 0.0392-0.072 0.07541-0.1445 0.11318-0.2169 0.04008-0.076 0.07679-0.1535 0.11341-0.2313 0.04048-0.082 0.07535-0.1671 0.11218-0.251 0.03621-0.095 0.07428-0.1885 0.10595-0.2848 0.03458-0.102 0.06879-0.2042 0.10252-0.3065 0.03345-0.1051 0.06416-0.2109 0.09918-0.3154 0.03336-0.097 0.06452-0.195 0.09769-0.2922 0.03417-0.1003 0.062-0.2024 0.09309-0.3037 0.03275-0.1076 0.06308-0.2159 0.09261-0.3245 0.03113-0.1146 0.05855-0.2302 0.08478-0.346 0.02606-0.1235 0.05377-0.2466 0.07869-0.3702 0.0256-0.1264 0.05194-0.2526 0.07701-0.3791 0.02541-0.1228 0.04792-0.2463 0.06438-0.3707 0.01615-0.1241 0.02807-0.2489 0.03331-0.374 0.0064-0.1338 0.0079-0.2677 0.0093-0.4016 0.0018-0.1362 0.0035-0.2723 0.0048-0.4084 0.0014-0.1252 0.0029-0.2505 0.0044-0.3757 0.0016-0.1119 0.0041-0.2237 0.007-0.3356 0.0028-0.1107 0.0061-0.2213 0.0097-0.332 0.0033-0.1129 0.0076-0.2259 0.0075-0.3388-0.0013-0.1255-0.0079-0.2509-0.0194-0.3759-0.0145-0.1451-0.03108-0.2901-0.05279-0.4343-0.02416-0.1552-0.0536-0.3094-0.08385-0.4635-0.0331-0.1698-0.06594-0.3396-0.1008-0.5091-0.03723-0.1824-0.0749-0.3648-0.11913-0.5457-0.04217-0.17-0.08738-0.3393-0.14101-0.5061-0.05138-0.1601-0.10543-0.3193-0.15948-0.4785-0.05995-0.1764-0.12066-0.3526-0.183-0.5282-0.06882-0.1937-0.1388-0.387-0.21306-0.5787-0.07735-0.1946-0.15802-0.3878-0.24964-0.5762-0.08717-0.18-0.17805-0.3582-0.27724-0.532-0.09161-0.16-0.18552-0.3185-0.28945-0.4709-0.09124-0.1355-0.18368-0.2702-0.28058-0.4017-0.09327-0.1242-0.18698-0.248-0.2846-0.3688-0.09357-0.1181-0.19-0.2338-0.28657-0.3494-0.09729-0.1145-0.19376-0.2297-0.29187-0.3435-0.09676-0.1118-0.19178-0.2251-0.28874-0.3367-0.09113-0.1031-0.18089-0.2074-0.27517-0.3077-0.08318-0.091-0.16738-0.1817-0.25915-0.2644-0.07735-0.07-0.15556-0.1395-0.23996-0.2012-0.0663-0.05-0.13482-0.099-0.20944-0.1363-0.05412-0.031-0.1107-0.059-0.16977-0.077-0.042-0.012-0.08028-0.014-0.1216-0.018-0.02508-0.01-0.06683-0.017-0.09109-0.01-0.03391-0.01-0.06462-0.01-0.09729-0.01 0 0 5.1223-0.7171 5.1223-0.7171z"/>
<path d="m74.59 1028.4c0.05635 0.032 0.12163 0.052 0.18331 0.075 0.08766 0.032 0.17346 0.068 0.25842 0.107 0.10397 0.047 0.20678 0.095 0.30922 0.1457 0.11984 0.074 0.24016 0.1475 0.35729 0.2259 0.13003 0.081 0.25625 0.1675 0.37256 0.2669 0.13238 0.106 0.2573 0.2208 0.38007 0.3377 0.12592 0.123 0.2527 0.2451 0.37861 0.3681 0.12063 0.1162 0.24049 0.2331 0.35674 0.3536 0.11665 0.1223 0.21634 0.2588 0.31313 0.397 0.10661 0.1567 0.19132 0.3269 0.27422 0.4969 0.10554 0.235 0.16354 0.4875 0.22485 0.7368 0.07603 0.3142 0.1374 0.6316 0.19835 0.949 0.06215 0.3241 0.12042 0.649 0.17966 0.9737 0.05369 0.2941 0.10652 0.5882 0.15693 0.8829 0.04364 0.2593 0.08137 0.5196 0.11165 0.7809 0.02815 0.2336 0.04512 0.4683 0.05586 0.7033 0.0091 0.2107 0.01466 0.4215 0.02043 0.6323 0.0053 0.2073 0.0096 0.4147 0.01368 0.622 0.0037 0.2152 0.0075 0.4304 0.01104 0.6456 0.0035 0.2195 0.0067 0.439 0.01049 0.6584 0.0033 0.213 0.0074 0.4261 0.01071 0.6391 0.0038 0.1996 0.0066 0.3992 0.01017 0.5988 0.003 0.1861 0.0059 0.3722 0.0088 0.5583 0.003 0.1716 0.0057 0.3431 0.008 0.5146 0.0024 0.1622 0.0041 0.3244 0.0063 0.4865 0.0022 0.1534 0.0014 0.3069 0.000591 0.4603 0.00036 0.1423-0.0016 0.2845-0.0065 0.4267-0.0055 0.1392-0.01254 0.2784-0.02263 0.4174-0.0094 0.1352-0.02485 0.2699-0.04089 0.4044-0.01403 0.1228-0.03072 0.2453-0.04869 0.3676-0.01769 0.1165-0.0378 0.2325-0.06127 0.348-0.02328 0.1101-0.04931 0.2195-0.07623 0.3287-0.02577 0.1032-0.05427 0.2057-0.08317 0.308-0.02849 0.1-0.06167 0.1981-0.09363 0.2968-0.03391 0.094-0.06671 0.1885-0.10372 0.2814-0.03676 0.088-0.07335 0.1752-0.11556 0.2603-0.04075 0.085-0.08019 0.1703-0.12748 0.2515-0.03072 0.051-0.05965 0.1029-0.08886 0.1547l-5.1533-0.2988c0.03296-0.042 0.06254-0.086 0.08895-0.1331 0.04254-0.07 0.09044-0.136 0.12605-0.2098 0.03816-0.078 0.08206-0.154 0.11585-0.2346 0.03847-0.082 0.07417-0.1645 0.10353-0.2502 0.03567-0.088 0.06134-0.1784 0.09414-0.2669 0.03014-0.096 0.05765-0.1933 0.08422-0.2906 0.02814-0.102 0.05341-0.2047 0.07723-0.3077 0.02471-0.1056 0.045-0.2121 0.06221-0.3191 0.02017-0.1164 0.03668-0.2334 0.05181-0.3505 0.01664-0.1261 0.03341-0.2523 0.04296-0.3793 0.01065-0.1324 0.01779-0.2651 0.02322-0.3979 0.0059-0.1372 0.0072-0.2744 0.0091-0.4117 0.0019-0.1501 0.0051-0.3003 0.0034-0.4504-0.0011-0.162-0.0027-0.324-0.0039-0.486-0.0015-0.1714-0.0027-0.3428-0.0038-0.5142-0.0015-0.1859-0.003-0.3719-0.0048-0.5579-0.0015-0.1994-0.004-0.3988-0.0056-0.5983-0.0026-0.2127-0.0044-0.4255-0.0076-0.6383-0.0029-0.219-0.0065-0.4381-0.01074-0.6571-0.0041-0.2146-0.0082-0.4292-0.01356-0.6437-0.0047-0.2067-0.0097-0.4133-0.01488-0.6199-0.0049-0.2079-0.0099-0.4159-0.01598-0.6237-0.0086-0.2231-0.02327-0.4459-0.04831-0.6678-0.02742-0.2524-0.06007-0.5041-0.09951-0.7549-0.04623-0.2927-0.09548-0.5849-0.14548-0.8769-0.05523-0.322-0.11175-0.6437-0.17493-0.9642-0.06167-0.3063-0.12732-0.612-0.21243-0.9127-0.06435-0.2158-0.1339-0.4305-0.25102-0.6246-0.08124-0.1439-0.16766-0.2846-0.27621-0.4101-0.09674-0.1161-0.19972-0.2264-0.30968-0.3302-0.11688-0.1146-0.23396-0.229-0.3517-0.3428-0.12365-0.1181-0.24708-0.2367-0.37787-0.347-0.1223-0.1013-0.24739-0.1994-0.38002-0.2869-0.12348-0.074-0.2459-0.1496-0.37165-0.2198-0.11588-0.061-0.23166-0.1231-0.35772-0.1604-0.10161-0.039-0.20441-0.075-0.30993-0.1016-0.08492-0.019-0.16996-0.035-0.25712-0.038-0.05769 0-0.12791 0-0.17799 0.026 0 0 5.1106-0.8094 5.1106-0.8094z"/>
<path d="m70.664 1028.6c0.05804 0.049 0.11742 0.096 0.17573 0.1454 0.09412 0.07 0.18853 0.1401 0.28053 0.2133 0.11344 0.087 0.22334 0.1791 0.33207 0.2722 0.1244 0.1079 0.2463 0.2189 0.36535 0.3327 0.12806 0.1234 0.25133 0.2515 0.37663 0.3777 0.11925 0.12 0.23665 0.2418 0.35516 0.3626 0.10635 0.1106 0.21 0.2237 0.31426 0.3363 0.10151 0.1062 0.18881 0.2237 0.27108 0.345 0.09154 0.1365 0.16657 0.2832 0.23098 0.4342 0.07626 0.1642 0.13709 0.3348 0.19928 0.5046 0.06589 0.1852 0.12838 0.3716 0.18686 0.5593 0.06916 0.2608 0.12728 0.5248 0.19118 0.7872 0.07291 0.3039 0.14068 0.6091 0.21001 0.9138 0.07259 0.3302 0.145 0.6605 0.21888 0.9905 0.07203 0.3302 0.1448 0.6603 0.22049 0.9898 0.06862 0.3001 0.13761 0.6002 0.20533 0.9006 0.06135 0.2682 0.12348 0.5363 0.18398 0.8048 0.05689 0.2579 0.11266 0.5161 0.17208 0.7734 0.0542 0.2367 0.10911 0.4732 0.16208 0.7102 0.04887 0.2189 0.09417 0.4386 0.14016 0.6582 0.04033 0.1992 0.08352 0.3979 0.12622 0.5967 0.03978 0.1808 0.07649 0.3623 0.11285 0.5438 0.03359 0.1688 0.06596 0.3378 0.09743 0.507 0.02952 0.1604 0.05741 0.3212 0.08314 0.4823 0.02435 0.1587 0.0496 0.3173 0.07601 0.4757 0.0273 0.1544 0.05286 0.3091 0.07813 0.4638 0.02462 0.1522 0.04525 0.3051 0.06884 0.4574 0.02278 0.1506 0.04473 0.3014 0.06717 0.452 0.01875 0.1391 0.04104 0.2776 0.0645 0.4159 0.02276 0.1361 0.04495 0.2722 0.06604 0.4086 0.0198 0.1242 0.04246 0.2481 0.06448 0.372 0.02025 0.1156 0.03914 0.2315 0.05809 0.3474 0.01547 0.1066 0.03594 0.2123 0.0545 0.3183 0.01778 0.1002 0.03463 0.2005 0.0514 0.3008 0.01559 0.092 0.03011 0.185 0.0446 0.2777 0.01352 0.086 0.02602 0.1714 0.0385 0.2572 0 0-5.1614 0.073-5.1614 0.073-0.01169-0.084-0.0239-0.168-0.03639-0.2519-0.01359-0.091-0.02772-0.1817-0.04216-0.2724-0.01577-0.099-0.03209-0.1974-0.04887-0.2959-0.01858-0.1082-0.03599-0.2166-0.05237-0.3252-0.01775-0.1141-0.03628-0.228-0.05531-0.3418-0.0208-0.1267-0.04238-0.2532-0.0606-0.3803-0.02081-0.1345-0.04191-0.2689-0.06437-0.4031-0.02292-0.1421-0.04355-0.2845-0.06257-0.4272-0.0205-0.1493-0.04176-0.2985-0.06466-0.4475-0.02258-0.151-0.04526-0.3021-0.06916-0.453-0.02438-0.1539-0.05043-0.3076-0.07561-0.4613-0.02621-0.159-0.05081-0.3181-0.07637-0.4772-0.0262-0.1575-0.05272-0.315-0.0814-0.4721-0.03024-0.1669-0.06085-0.3337-0.09319-0.5002-0.03487-0.1797-0.07162-0.3589-0.10774-0.5383-0.04047-0.1996-0.08123-0.3992-0.12003-0.5991-0.04321-0.2172-0.08773-0.4341-0.13481-0.6505-0.05112-0.2363-0.10243-0.4726-0.15457-0.7086-0.05575-0.2578-0.1108-0.5156-0.16806-0.773-0.06022-0.2689-0.12052-0.5377-0.17709-0.8073-0.0643-0.2998-0.12851-0.5996-0.19418-0.8991-0.07174-0.33-0.14246-0.6602-0.21586-0.9898-0.07354-0.3292-0.14852-0.6581-0.2248-0.9867-0.07097-0.3022-0.14251-0.6042-0.21875-0.9051-0.06427-0.2527-0.12832-0.5059-0.21897-0.7507-0.06068-0.1793-0.12339-0.3579-0.19205-0.5343-0.06047-0.1544-0.12512-0.3072-0.20266-0.4539-0.06964-0.1185-0.14336-0.2344-0.23294-0.3391-0.08533-0.1008-0.17656-0.1963-0.26635-0.2931-0.10098-0.1094-0.20366-0.2172-0.30786-0.3235-0.11564-0.1197-0.23178-0.2389-0.35018-0.3558-0.12214-0.1211-0.24559-0.2408-0.37619-0.3528-0.12095-0.1036-0.24214-0.207-0.36928-0.3031-0.11044-0.084-0.22102-0.1674-0.33624-0.2448-0.09405-0.062-0.18836-0.1236-0.28799-0.1761-0.05724-0.024-0.1177-0.049-0.18038-0.046 0 0 5.1374-0.6213 5.1374-0.6213z"/>
</g>
<path d="m26.338 10.822c0.05804 0.0488 0.11742 0.09636 0.17573 0.1453 0.09412 0.07042 0.18853 0.14017 0.28053 0.21334 0.11344 0.08726 0.22334 0.1791 0.33207 0.27216 0.1244 0.10796 0.2463 0.21893 0.36535 0.33277 0.12806 0.12335 0.25133 0.25149 0.37663 0.37764 0.11925 0.12002 0.23665 0.24187 0.35516 0.36263 0.10635 0.11063 0.21 0.22374 0.31426 0.33632 0.10151 0.10618 0.18881 0.22366 0.27108 0.345 0.09154 0.13653 0.16657 0.28317 0.23098 0.43414 0.07626 0.16424 0.13709 0.33481 0.19928 0.50467 0.06589 0.1852 0.12838 0.37156 0.18686 0.55923 0.06916 0.26083 0.12728 0.52487 0.19118 0.78723 0.07291 0.30393 0.14068 0.60906 0.21001 0.91382 0.07259 0.33024 0.145 0.66052 0.21888 0.99047 0.07203 0.33026 0.1448 0.66034 0.22049 0.98978 0.06862 0.30016 0.13761 0.60024 0.20533 0.9006 0.06135 0.26826 0.12348 0.53634 0.18398 0.8048 0.05689 0.25792 0.11266 0.5161 0.17208 0.77346 0.0542 0.23669 0.10911 0.47322 0.16208 0.71019 0.04887 0.21892 0.09417 0.43862 0.14016 0.65815 0.04033 0.19927 0.08352 0.39794 0.12622 0.59671 0.03978 0.18084 0.07649 0.36232 0.11285 0.54386 0.03359 0.16877 0.06596 0.33777 0.09743 0.50695 0.02952 0.16047 0.05741 0.32123 0.08314 0.48234 0.02435 0.15873 0.0496 0.31732 0.07601 0.47572 0.0273 0.15439 0.05286 0.30907 0.07813 0.4638 0.02462 0.15222 0.04525 0.30503 0.06884 0.4574 0.02278 0.15061 0.04473 0.30134 0.06717 0.452 0.01875 0.13907 0.04104 0.27757 0.0645 0.4159 0.02276 0.13605 0.04495 0.2722 0.06604 0.40852 0.0198 0.12428 0.04246 0.24812 0.06448 0.37203 0.02025 0.11567 0.03914 0.23156 0.05809 0.34745 0.01547 0.10655 0.03594 0.21225 0.0545 0.31828 0.01778 0.10015 0.03463 0.20046 0.0514 0.30078 0.01559 0.09244 0.03011 0.18506 0.0446 0.27767 0.01352 0.08563 0.02602 0.17141 0.0385 0.25719 0 0-5.1614 0.073-5.1614 0.073-0.01169-0.08402-0.0239-0.16796-0.03639-0.25186-0.01359-0.09088-0.02772-0.18167-0.04216-0.27242-0.01577-0.09872-0.03209-0.19734-0.04887-0.29589-0.01858-0.10822-0.03599-0.21663-0.05237-0.3252-0.01775-0.11404-0.03628-0.22796-0.05531-0.34179-0.0208-0.12666-0.04238-0.25319-0.0606-0.38025-0.02081-0.1345-0.04191-0.26894-0.06437-0.40318-0.02292-0.14207-0.04355-0.28448-0.06257-0.42712-0.0205-0.14932-0.04176-0.29854-0.06466-0.44751-0.02258-0.15107-0.04526-0.30214-0.06916-0.45301-0.02438-0.15392-0.05043-0.30757-0.07561-0.46136-0.02621-0.15892-0.05081-0.31811-0.07637-0.47714-0.0262-0.15752-0.05272-0.315-0.0814-0.47209-0.03024-0.16691-0.06085-0.33376-0.09319-0.50027-0.03487-0.17963-0.07162-0.35889-0.10774-0.53827-0.04047-0.1996-0.08123-0.39914-0.12003-0.59908-0.04321-0.21721-0.08773-0.43416-0.13481-0.65057-0.05112-0.23629-0.10243-0.47254-0.15457-0.70861-0.05575-0.25772-0.1108-0.5156-0.16806-0.77299-0.06022-0.26882-0.12052-0.53763-0.17709-0.80724-0.0643-0.29979-0.12851-0.5996-0.19418-0.8991-0.07174-0.32999-0.14246-0.66021-0.21586-0.98984-0.07354-0.32921-0.14852-0.6581-0.2248-0.98669-0.07097-0.30215-0.14251-0.6042-0.21875-0.90507-0.06427-0.2527-0.12832-0.5059-0.21897-0.75071-0.06068-0.1793-0.12339-0.35794-0.19205-0.53436-0.06047-0.15434-0.12512-0.3072-0.20266-0.45388-0.06964-0.11843-0.14336-0.23441-0.23294-0.33907-0.08533-0.10083-0.17656-0.19628-0.26635-0.2931-0.10098-0.10937-0.20366-0.21718-0.30786-0.32349-0.11564-0.11969-0.23178-0.23889-0.35018-0.35585-0.12214-0.12101-0.24559-0.24076-0.37619-0.35273-0.12095-0.10364-0.24214-0.20703-0.36928-0.3031-0.11044-0.08395-0.22102-0.16747-0.33624-0.24487-0.09405-0.06171-0.18836-0.12361-0.28799-0.17604-0.05724-0.02354-0.1177-0.04929-0.18038-0.04622 0 0 5.1374-0.62136 5.1374-0.62136z" transform="translate(0,988.36)"/>
<g transform="matrix(0,-1,-1,0,1057.9,1091.7)">
<path d="m78.411 1028.4c0.03585 0.012 0.06946 0.03 0.10741 0.041 0.02697 0.022 0.06315 0.043 0.09623 0.054 0.04488 0.026 0.08284 0.061 0.12459 0.094 0.05712 0.044 0.11275 0.089 0.16945 0.1342 0.06931 0.063 0.13814 0.1264 0.2069 0.1899 0.08206 0.079 0.16088 0.1614 0.23801 0.2454 0.08597 0.097 0.1703 0.1955 0.25651 0.2923 0.09089 0.107 0.18299 0.2129 0.27256 0.321 0.09486 0.1133 0.19177 0.2249 0.28666 0.3381 0.09831 0.116 0.19651 0.2322 0.29217 0.3504 0.09886 0.1186 0.19232 0.2415 0.28681 0.3636 0.09813 0.1277 0.19276 0.2582 0.28365 0.3912 0.09686 0.14 0.19011 0.2825 0.27914 0.4276 0.1006 0.1646 0.19157 0.335 0.28257 0.505 0.09966 0.1849 0.18881 0.3751 0.27571 0.5663 0.09064 0.2007 0.17109 0.4057 0.24882 0.6117 0.07516 0.1961 0.14686 0.3935 0.21877 0.5908 0.06418 0.1777 0.12691 0.3559 0.18978 0.5341 0.05837 0.1639 0.11277 0.3292 0.16231 0.496 0.05267 0.178 0.09535 0.3588 0.13676 0.5397 0.04144 0.1865 0.0808 0.3734 0.12064 0.5602 0.0358 0.1713 0.07159 0.3425 0.10618 0.5141 0.03403 0.1609 0.06227 0.3228 0.08712 0.4853 0.02254 0.153 0.04084 0.3066 0.05706 0.4603 0.01373 0.1395 0.02241 0.2794 0.02574 0.4194 0.0027 0.1208-0.0012 0.2415-0.0043 0.3622-0.0026 0.1104-0.0054 0.2208-0.0083 0.3312-0.0029 0.1111-0.0056 0.2222-0.0087 0.3332-0.0038 0.1244-0.0065 0.2487-0.0092 0.3731-0.003 0.1356-0.0051 0.2712-0.0069 0.4068-0.0011 0.1388-0.0035 0.2775-0.0085 0.4162-0.0048 0.1386-0.01687 0.2767-0.03235 0.4144-0.01671 0.137-0.03994 0.273-0.06523 0.4086-0.02575 0.1278-0.0499 0.256-0.07651 0.3837-0.02468 0.1246-0.05115 0.2489-0.07747 0.3732-0.02514 0.1229-0.05428 0.245-0.08344 0.367-0.02815 0.1144-0.05944 0.2279-0.09084 0.3416-0.03069 0.1054-0.06043 0.2112-0.09168 0.3165-0.03093 0.1011-0.06467 0.2011-0.0979 0.3015-0.03552 0.1012-0.06815 0.2032-0.10018 0.3055-0.0339 0.1053-0.06711 0.2109-0.10204 0.3159-0.03275 0.1017-0.06782 0.2025-0.10463 0.3027-0.03267 0.096-0.0728 0.1888-0.11095 0.2824-0.03646 0.084-0.07391 0.1678-0.11234 0.2509-0.03681 0.076-0.07426 0.1523-0.11172 0.2282-0.03657 0.076-0.07821 0.1486-0.11696 0.2232-0.04021 0.07-0.07913 0.141-0.12261 0.2093-0.0415 0.064-0.08382 0.1285-0.12597 0.1927-0.03902 0.067-0.09126 0.1238-0.14098 0.1826-0.008 0.01-0.01599 0.018-0.02399 0.026l-5.151-0.3975c0.008-0.01 0.01594-0.015 0.02391-0.023 0.04629-0.042 0.08904-0.088 0.13728-0.1276 0.04591-0.049 0.08885-0.1025 0.12496-0.1591 0.04167-0.059 0.08708-0.1152 0.12227-0.1782 0.04259-0.063 0.07775-0.1308 0.11631-0.1963 0.0392-0.072 0.07541-0.1445 0.11318-0.2169 0.04008-0.076 0.07679-0.1535 0.11341-0.2313 0.04048-0.082 0.07535-0.1671 0.11218-0.251 0.03621-0.095 0.07428-0.1885 0.10595-0.2848 0.03458-0.102 0.06879-0.2042 0.10252-0.3065 0.03345-0.1051 0.06416-0.2109 0.09918-0.3154 0.03336-0.097 0.06452-0.195 0.09769-0.2922 0.03417-0.1003 0.062-0.2024 0.09309-0.3037 0.03275-0.1076 0.06308-0.2159 0.09261-0.3245 0.03113-0.1146 0.05855-0.2302 0.08478-0.346 0.02606-0.1235 0.05377-0.2466 0.07869-0.3702 0.0256-0.1264 0.05194-0.2526 0.07701-0.3791 0.02541-0.1228 0.04792-0.2463 0.06438-0.3707 0.01615-0.1241 0.02807-0.2489 0.03331-0.374 0.0064-0.1338 0.0079-0.2677 0.0093-0.4016 0.0018-0.1362 0.0035-0.2723 0.0048-0.4084 0.0014-0.1252 0.0029-0.2505 0.0044-0.3757 0.0016-0.1119 0.0041-0.2237 0.007-0.3356 0.0028-0.1107 0.0061-0.2213 0.0097-0.332 0.0033-0.1129 0.0076-0.2259 0.0075-0.3388-0.0013-0.1255-0.0079-0.2509-0.0194-0.3759-0.0145-0.1451-0.03108-0.2901-0.05279-0.4343-0.02416-0.1552-0.0536-0.3094-0.08385-0.4635-0.0331-0.1698-0.06594-0.3396-0.1008-0.5091-0.03723-0.1824-0.0749-0.3648-0.11913-0.5457-0.04217-0.17-0.08738-0.3393-0.14101-0.5061-0.05138-0.1601-0.10543-0.3193-0.15948-0.4785-0.05995-0.1764-0.12066-0.3526-0.183-0.5282-0.06882-0.1937-0.1388-0.387-0.21306-0.5787-0.07735-0.1946-0.15802-0.3878-0.24964-0.5762-0.08717-0.18-0.17805-0.3582-0.27724-0.532-0.09161-0.16-0.18552-0.3185-0.28945-0.4709-0.09124-0.1355-0.18368-0.2702-0.28058-0.4017-0.09327-0.1242-0.18698-0.248-0.2846-0.3688-0.09357-0.1181-0.19-0.2338-0.28657-0.3494-0.09729-0.1145-0.19376-0.2297-0.29187-0.3435-0.09676-0.1118-0.19178-0.2251-0.28874-0.3367-0.09113-0.1031-0.18089-0.2074-0.27517-0.3077-0.08318-0.091-0.16738-0.1817-0.25915-0.2644-0.07735-0.07-0.15556-0.1395-0.23996-0.2012-0.0663-0.05-0.13482-0.099-0.20944-0.1363-0.05412-0.031-0.1107-0.059-0.16977-0.077-0.042-0.012-0.08028-0.014-0.1216-0.018-0.02508-0.01-0.06683-0.017-0.09109-0.01-0.03391-0.01-0.06462-0.01-0.09729-0.01 0 0 5.1223-0.7171 5.1223-0.7171z"/>
<path d="m74.59 1028.4c0.05635 0.032 0.12163 0.052 0.18331 0.075 0.08766 0.032 0.17346 0.068 0.25842 0.107 0.10397 0.047 0.20678 0.095 0.30922 0.1457 0.11984 0.074 0.24016 0.1475 0.35729 0.2259 0.13003 0.081 0.25625 0.1675 0.37256 0.2669 0.13238 0.106 0.2573 0.2208 0.38007 0.3377 0.12592 0.123 0.2527 0.2451 0.37861 0.3681 0.12063 0.1162 0.24049 0.2331 0.35674 0.3536 0.11665 0.1223 0.21634 0.2588 0.31313 0.397 0.10661 0.1567 0.19132 0.3269 0.27422 0.4969 0.10554 0.235 0.16354 0.4875 0.22485 0.7368 0.07603 0.3142 0.1374 0.6316 0.19835 0.949 0.06215 0.3241 0.12042 0.649 0.17966 0.9737 0.05369 0.2941 0.10652 0.5882 0.15693 0.8829 0.04364 0.2593 0.08137 0.5196 0.11165 0.7809 0.02815 0.2336 0.04512 0.4683 0.05586 0.7033 0.0091 0.2107 0.01466 0.4215 0.02043 0.6323 0.0053 0.2073 0.0096 0.4147 0.01368 0.622 0.0037 0.2152 0.0075 0.4304 0.01104 0.6456 0.0035 0.2195 0.0067 0.439 0.01049 0.6584 0.0033 0.213 0.0074 0.4261 0.01071 0.6391 0.0038 0.1996 0.0066 0.3992 0.01017 0.5988 0.003 0.1861 0.0059 0.3722 0.0088 0.5583 0.003 0.1716 0.0057 0.3431 0.008 0.5146 0.0024 0.1622 0.0041 0.3244 0.0063 0.4865 0.0022 0.1534 0.0014 0.3069 0.000591 0.4603 0.00036 0.1423-0.0016 0.2845-0.0065 0.4267-0.0055 0.1392-0.01254 0.2784-0.02263 0.4174-0.0094 0.1352-0.02485 0.2699-0.04089 0.4044-0.01403 0.1228-0.03072 0.2453-0.04869 0.3676-0.01769 0.1165-0.0378 0.2325-0.06127 0.348-0.02328 0.1101-0.04931 0.2195-0.07623 0.3287-0.02577 0.1032-0.05427 0.2057-0.08317 0.308-0.02849 0.1-0.06167 0.1981-0.09363 0.2968-0.03391 0.094-0.06671 0.1885-0.10372 0.2814-0.03676 0.088-0.07335 0.1752-0.11556 0.2603-0.04075 0.085-0.08019 0.1703-0.12748 0.2515-0.03072 0.051-0.05965 0.1029-0.08886 0.1547l-5.1533-0.2988c0.03296-0.042 0.06254-0.086 0.08895-0.1331 0.04254-0.07 0.09044-0.136 0.12605-0.2098 0.03816-0.078 0.08206-0.154 0.11585-0.2346 0.03847-0.082 0.07417-0.1645 0.10353-0.2502 0.03567-0.088 0.06134-0.1784 0.09414-0.2669 0.03014-0.096 0.05765-0.1933 0.08422-0.2906 0.02814-0.102 0.05341-0.2047 0.07723-0.3077 0.02471-0.1056 0.045-0.2121 0.06221-0.3191 0.02017-0.1164 0.03668-0.2334 0.05181-0.3505 0.01664-0.1261 0.03341-0.2523 0.04296-0.3793 0.01065-0.1324 0.01779-0.2651 0.02322-0.3979 0.0059-0.1372 0.0072-0.2744 0.0091-0.4117 0.0019-0.1501 0.0051-0.3003 0.0034-0.4504-0.0011-0.162-0.0027-0.324-0.0039-0.486-0.0015-0.1714-0.0027-0.3428-0.0038-0.5142-0.0015-0.1859-0.003-0.3719-0.0048-0.5579-0.0015-0.1994-0.004-0.3988-0.0056-0.5983-0.0026-0.2127-0.0044-0.4255-0.0076-0.6383-0.0029-0.219-0.0065-0.4381-0.01074-0.6571-0.0041-0.2146-0.0082-0.4292-0.01356-0.6437-0.0047-0.2067-0.0097-0.4133-0.01488-0.6199-0.0049-0.2079-0.0099-0.4159-0.01598-0.6237-0.0086-0.2231-0.02327-0.4459-0.04831-0.6678-0.02742-0.2524-0.06007-0.5041-0.09951-0.7549-0.04623-0.2927-0.09548-0.5849-0.14548-0.8769-0.05523-0.322-0.11175-0.6437-0.17493-0.9642-0.06167-0.3063-0.12732-0.612-0.21243-0.9127-0.06435-0.2158-0.1339-0.4305-0.25102-0.6246-0.08124-0.1439-0.16766-0.2846-0.27621-0.4101-0.09674-0.1161-0.19972-0.2264-0.30968-0.3302-0.11688-0.1146-0.23396-0.229-0.3517-0.3428-0.12365-0.1181-0.24708-0.2367-0.37787-0.347-0.1223-0.1013-0.24739-0.1994-0.38002-0.2869-0.12348-0.074-0.2459-0.1496-0.37165-0.2198-0.11588-0.061-0.23166-0.1231-0.35772-0.1604-0.10161-0.039-0.20441-0.075-0.30993-0.1016-0.08492-0.019-0.16996-0.035-0.25712-0.038-0.05769 0-0.12791 0-0.17799 0.026 0 0 5.1106-0.8094 5.1106-0.8094z"/>
<path d="m70.664 1028.6c0.05804 0.049 0.11742 0.096 0.17573 0.1454 0.09412 0.07 0.18853 0.1401 0.28053 0.2133 0.11344 0.087 0.22334 0.1791 0.33207 0.2722 0.1244 0.1079 0.2463 0.2189 0.36535 0.3327 0.12806 0.1234 0.25133 0.2515 0.37663 0.3777 0.11925 0.12 0.23665 0.2418 0.35516 0.3626 0.10635 0.1106 0.21 0.2237 0.31426 0.3363 0.10151 0.1062 0.18881 0.2237 0.27108 0.345 0.09154 0.1365 0.16657 0.2832 0.23098 0.4342 0.07626 0.1642 0.13709 0.3348 0.19928 0.5046 0.06589 0.1852 0.12838 0.3716 0.18686 0.5593 0.06916 0.2608 0.12728 0.5248 0.19118 0.7872 0.07291 0.3039 0.14068 0.6091 0.21001 0.9138 0.07259 0.3302 0.145 0.6605 0.21888 0.9905 0.07203 0.3302 0.1448 0.6603 0.22049 0.9898 0.06862 0.3001 0.13761 0.6002 0.20533 0.9006 0.06135 0.2682 0.12348 0.5363 0.18398 0.8048 0.05689 0.2579 0.11266 0.5161 0.17208 0.7734 0.0542 0.2367 0.10911 0.4732 0.16208 0.7102 0.04887 0.2189 0.09417 0.4386 0.14016 0.6582 0.04033 0.1992 0.08352 0.3979 0.12622 0.5967 0.03978 0.1808 0.07649 0.3623 0.11285 0.5438 0.03359 0.1688 0.06596 0.3378 0.09743 0.507 0.02952 0.1604 0.05741 0.3212 0.08314 0.4823 0.02435 0.1587 0.0496 0.3173 0.07601 0.4757 0.0273 0.1544 0.05286 0.3091 0.07813 0.4638 0.02462 0.1522 0.04525 0.3051 0.06884 0.4574 0.02278 0.1506 0.04473 0.3014 0.06717 0.452 0.01875 0.1391 0.04104 0.2776 0.0645 0.4159 0.02276 0.1361 0.04495 0.2722 0.06604 0.4086 0.0198 0.1242 0.04246 0.2481 0.06448 0.372 0.02025 0.1156 0.03914 0.2315 0.05809 0.3474 0.01547 0.1066 0.03594 0.2123 0.0545 0.3183 0.01778 0.1002 0.03463 0.2005 0.0514 0.3008 0.01559 0.092 0.03011 0.185 0.0446 0.2777 0.01352 0.086 0.02602 0.1714 0.0385 0.2572 0 0-5.1614 0.073-5.1614 0.073-0.01169-0.084-0.0239-0.168-0.03639-0.2519-0.01359-0.091-0.02772-0.1817-0.04216-0.2724-0.01577-0.099-0.03209-0.1974-0.04887-0.2959-0.01858-0.1082-0.03599-0.2166-0.05237-0.3252-0.01775-0.1141-0.03628-0.228-0.05531-0.3418-0.0208-0.1267-0.04238-0.2532-0.0606-0.3803-0.02081-0.1345-0.04191-0.2689-0.06437-0.4031-0.02292-0.1421-0.04355-0.2845-0.06257-0.4272-0.0205-0.1493-0.04176-0.2985-0.06466-0.4475-0.02258-0.151-0.04526-0.3021-0.06916-0.453-0.02438-0.1539-0.05043-0.3076-0.07561-0.4613-0.02621-0.159-0.05081-0.3181-0.07637-0.4772-0.0262-0.1575-0.05272-0.315-0.0814-0.4721-0.03024-0.1669-0.06085-0.3337-0.09319-0.5002-0.03487-0.1797-0.07162-0.3589-0.10774-0.5383-0.04047-0.1996-0.08123-0.3992-0.12003-0.5991-0.04321-0.2172-0.08773-0.4341-0.13481-0.6505-0.05112-0.2363-0.10243-0.4726-0.15457-0.7086-0.05575-0.2578-0.1108-0.5156-0.16806-0.773-0.06022-0.2689-0.12052-0.5377-0.17709-0.8073-0.0643-0.2998-0.12851-0.5996-0.19418-0.8991-0.07174-0.33-0.14246-0.6602-0.21586-0.9898-0.07354-0.3292-0.14852-0.6581-0.2248-0.9867-0.07097-0.3022-0.14251-0.6042-0.21875-0.9051-0.06427-0.2527-0.12832-0.5059-0.21897-0.7507-0.06068-0.1793-0.12339-0.3579-0.19205-0.5343-0.06047-0.1544-0.12512-0.3072-0.20266-0.4539-0.06964-0.1185-0.14336-0.2344-0.23294-0.3391-0.08533-0.1008-0.17656-0.1963-0.26635-0.2931-0.10098-0.1094-0.20366-0.2172-0.30786-0.3235-0.11564-0.1197-0.23178-0.2389-0.35018-0.3558-0.12214-0.1211-0.24559-0.2408-0.37619-0.3528-0.12095-0.1036-0.24214-0.207-0.36928-0.3031-0.11044-0.084-0.22102-0.1674-0.33624-0.2448-0.09405-0.062-0.18836-0.1236-0.28799-0.1761-0.05724-0.024-0.1177-0.049-0.18038-0.046 0 0 5.1374-0.6213 5.1374-0.6213z"/>
</g>
</g>
<path d="m21.913 1038.1c-9.769 15.76 11.918 13.851 0 0z" stroke="#4e82cb" fill="#d2f8f8"/>
<path d="m16.93 1034c8.2517 13.731-10.805 11.505 0 0z" stroke="#4e82cb" fill="#d2f8f8"/>
</g>
</g>
</g>
</svg>
